<svg xmlns="http://www.w3.org/2000/svg" width="20" height="30" viewBox="0 0 20 30"><g fill="#F6F0E1"><path d="M9.70633333,29.705 C9.24166667,29.705 8.85266667,29.3616667 8.73933333,28.8506667 C8.72433333,28.762 8.00766667,24.4356667 4.56166667,19.3843333 L4.00333333,18.6073333 C1.40666667,14.994 0.103333333,13.1806667 0.103333333,9.77666667 C0.103333333,4.45966667 4.286,0.295 9.62533333,0.295 C14.9213333,0.295 19.2296667,4.54833333 19.2296667,9.77666667 C19.2283333,13.0356667 17.0753333,16.098 15.3456667,18.5583333 C15.145,18.8433333 14.9503333,19.1203333 14.7663333,19.3873333 C11.2343333,24.4516667 10.6896667,28.7353333 10.6846667,28.778 C10.56,29.3616667 10.1716667,29.705 9.70633333,29.705 Z M9.686,5.756 C7.427,5.756 5.58833333,7.62033333 5.58833333,9.912 C5.58833333,12.2626667 7.465,14.2483333 9.686,14.2483333 C12.0113333,14.247 13.904,12.301 13.904,9.912 C13.9043333,7.54266667 12.091,5.756 9.686,5.756 Z"/><path d="M9.70633333,29.705 C9.24166667,29.705 8.85266667,29.3616667 8.73933333,28.8506667 C8.72433333,28.762 8.00766667,24.4356667 4.56166667,19.3843333 L4.00333333,18.6073333 C1.40666667,14.994 0.103333333,13.1806667 0.103333333,9.77666667 C0.103333333,4.45966667 4.286,0.295 9.62533333,0.295 C14.9213333,0.295 19.2296667,4.54833333 19.2296667,9.77666667 C19.2283333,13.0356667 17.0753333,16.098 15.3456667,18.5583333 C15.145,18.8433333 14.9503333,19.1203333 14.7663333,19.3873333 C11.2343333,24.4516667 10.6896667,28.7353333 10.6846667,28.778 C10.56,29.3616667 10.1716667,29.705 9.70633333,29.705 Z M9.62566667,1.77266667 C5.11466667,1.77266667 1.58133333,5.28866667 1.58133333,9.77666667 C1.58133333,12.7046667 2.642,14.18 5.20333333,17.7446667 L5.77333333,18.5383333 C7.96966667,21.7576667 9.11033333,24.6633333 9.67833333,26.512 C10.2043333,24.6736667 11.3083333,21.7636667 13.5523333,18.5456667 C13.7363333,18.2786667 13.934,17.998 14.1366667,17.7093333 C15.747,15.4183333 17.7506667,12.5683333 17.7523333,9.777 C17.752,5.363 14.1063333,1.77266667 9.62566667,1.77266667 Z M9.687,15.7263333 C6.66466667,15.7263333 4.111,13.064 4.111,9.91233333 C4.111,6.806 6.61166667,4.27866667 9.68633333,4.27866667 C12.8806667,4.27866667 15.382,6.75366667 15.382,9.91233333 C15.382,13.1156667 12.827,15.724 9.687,15.7263333 Z M9.686,5.75633333 C7.427,5.75633333 5.58833333,7.62066667 5.58833333,9.91233333 C5.58833333,12.263 7.465,14.2486667 9.686,14.2486667 C12.0113333,14.2473333 13.904,12.3013333 13.904,9.91233333 C13.9043333,7.54266667 12.091,5.75633333 9.686,5.75633333 Z"/><path d="M9.70633333,29.705 C9.24166667,29.705 8.85266667,29.3616667 8.73933333,28.8506667 C8.72433333,28.762 8.00766667,24.4356667 4.56166667,19.3843333 L4.00333333,18.6073333 C1.40666667,14.994 0.103333333,13.1806667 0.103333333,9.77666667 C0.103333333,4.45966667 4.286,0.295 9.62533333,0.295 C14.9213333,0.295 19.2296667,4.54833333 19.2296667,9.77666667 C19.2283333,13.0356667 17.0753333,16.098 15.3456667,18.5583333 C15.145,18.8433333 14.9503333,19.1203333 14.7663333,19.3873333 C11.2343333,24.4516667 10.6896667,28.7353333 10.6846667,28.778 C10.56,29.3616667 10.1716667,29.705 9.70633333,29.705 Z M9.62566667,1.77266667 C5.11466667,1.77266667 1.58133333,5.28866667 1.58133333,9.77666667 C1.58133333,12.7046667 2.642,14.18 5.20333333,17.7443333 L5.77333333,18.538 C7.96966667,21.7573333 9.11033333,24.663 9.67833333,26.5116667 C10.2043333,24.6733333 11.3083333,21.7633333 13.5523333,18.5453333 C13.7363333,18.2783333 13.934,17.9976667 14.1366667,17.709 C15.747,15.418 17.7506667,12.568 17.7523333,9.77666667 C17.752,5.363 14.1063333,1.77266667 9.62566667,1.77266667 Z M9.687,15.726 C6.66466667,15.726 4.111,13.0636667 4.111,9.912 C4.111,6.80566667 6.61166667,4.27833333 9.68633333,4.27833333 C12.8806667,4.27833333 15.382,6.75333333 15.382,9.912 C15.382,13.1156667 12.827,15.724 9.687,15.726 Z M9.686,5.756 C7.427,5.756 5.58833333,7.62033333 5.58833333,9.912 C5.58833333,12.2626667 7.465,14.2483333 9.686,14.2483333 C12.0113333,14.247 13.904,12.301 13.904,9.912 C13.9043333,7.54266667 12.091,5.756 9.686,5.756 Z"/></g></svg>