<svg xmlns="http://www.w3.org/2000/svg" width="80" height="80" viewBox="0 0 80 80"><g fill="#1DBAB4"><polygon points="0 66 13 66 13 79"/><path d="M58.6272775 67.8 58.6272775 70.6 35.4809995 70.6C35.3691723 71.0807727 35.208053 71.5497275 35 72L63 72 63 65 35 65C35.4013472 65.8885661 35.6475721 66.8345621 35.7287871 67.8L58.6272775 67.8ZM32.021127 65 25 68.4921348 32.021127 72C33.326291 69.8480827 33.326291 67.1519173 32.021127 65L32.021127 65Z"/><rect width="6" height="7" x="67" y="65"/><path d="M7 53 56 53 56 38 7 38 7 53ZM9.96969697 41 29.2727273 41 29.2727273 44 9.96969697 44 9.96969697 41ZM9.96969697 47 50.0606061 47 50.0606061 50 9.96969697 50 9.96969697 47ZM7 29 56 29 56 14 7 14 7 29ZM9.96969697 17 29.2727273 17 29.2727273 20 9.96969697 20 9.96969697 17ZM9.96969697 23 50.0606061 23 50.0606061 26 9.96969697 26 9.96969697 23Z"/><path d="M0,4 L0,63.7037037 L0,63.7037037 L16.2962963,63.7037037 L16.2962963,80 L76,80 C78.209139,80 80,78.209139 80,76 L80,4 C80,1.790861 78.209139,-4.05812251e-16 76,0 L4,0 C1.790861,4.05812251e-16 -2.705415e-16,1.790861 0,4 Z M25.1851852,4.44444444 L54.8148148,4.44444444 L54.8148148,7.40740741 L25.1851852,7.40740741 L25.1851852,4.44444444 Z M4.44444444,11.8518519 L59.2592593,11.8518519 L59.2592593,32.5925926 L4.44444444,32.5925926 L4.44444444,11.8518519 Z M4.44444444,56.2962963 L4.44444444,35.5555556 L59.2592593,35.5555556 L59.2592593,56.2962963 L4.44444444,56.2962963 Z M75.5555556,75.5555556 L32.237037,75.5555556 L31.7777778,75.3185185 L18.9037037,68.8888889 L31.7777778,62.4592593 L32.237037,62.2222222 L75.5555556,62.2222222 L75.5555556,75.5555556 Z M63.0962963,37.037037 L65.1851852,34.9333333 L68.1481481,37.8962963 L71.1111111,34.9333333 L73.2,37.037037 L70.237037,40 L73.2,42.962963 L71.1111111,45.0518519 L68.1481481,42.0888889 L65.1851852,45.0518519 L63.0962963,42.962963 L66.0592593,40 L63.0962963,37.037037 Z M66.6666667,22.8296296 L61.6148148,17.7777778 L63.7037037,15.6740741 L66.6666667,18.637037 L74.0740741,11.2296296 L76.162963,13.3333333 L66.6666667,22.8296296 Z"/></g></svg>