<svg xmlns="http://www.w3.org/2000/svg" width="30" height="30" viewBox="0 0 30 30"><path fill="#FFF" d="M1280.9758,0 C1272.85404,0 1266.2462,6.617 1266.2462,14.75 C1266.2462,22.883 1272.85404,29.5 1280.9758,29.5 C1289.09755,29.5 1295.70539,22.883 1295.70539,14.75 C1295.70539,6.617 1289.09755,0 1280.9758,0 Z M1277.54555,1.967 C1276.36318,3.146 1275.37256,4.764 1274.63857,6.686 C1273.57205,6.281 1272.62436,5.778 1271.84045,5.188 C1273.42126,3.673 1275.37256,2.553 1277.54555,1.967 Z M1270.80888,6.283 C1271.74858,7.017 1272.88001,7.631 1274.15424,8.111 C1273.62897,9.9 1273.3184,11.894 1273.25649,14 L1267.78207,14 C1267.94684,11.076 1269.04832,8.4 1270.80888,6.283 Z M1267.78207,15.5 L1273.25649,15.5 C1273.3184,17.605 1273.62897,19.6 1274.15424,21.389 C1272.88001,21.869 1271.74758,22.485 1270.80888,23.217 C1269.04732,21.1 1267.94684,18.424 1267.78207,15.5 Z M1271.84045,24.311 C1272.62436,23.723 1273.57205,23.219 1274.63857,22.815 C1275.37156,24.737 1276.36318,26.354 1277.54455,27.533 C1275.37256,26.945 1273.42026,25.826 1271.84045,24.311 Z M1280.22683,27.666 C1278.50921,26.818 1277.04923,24.898 1276.06759,22.353 C1277.3658,21.999 1278.77285,21.784 1280.22683,21.728 L1280.22683,27.666 Z M1280.22683,20.229 C1278.59609,20.287 1277.03026,20.524 1275.58726,20.923 C1275.10692,19.276 1274.81533,17.436 1274.75441,15.5 L1280.22683,15.5 L1280.22683,20.229 Z M1280.22683,14 L1274.75441,14 C1274.81533,12.064 1275.10792,10.226 1275.58726,8.577 C1277.03026,8.977 1278.59609,9.215 1280.22683,9.272 L1280.22683,14 Z M1280.22683,7.772 C1278.77285,7.716 1277.3658,7.501 1276.06759,7.147 C1277.04923,4.601 1278.50821,2.682 1280.22683,1.835 L1280.22683,7.772 Z M1294.16952,13.999 L1288.6951,13.999 L1288.6951,14 C1288.63219,11.894 1288.32262,9.9 1287.79735,8.111 C1289.07158,7.631 1290.20401,7.016 1291.14371,6.282 C1292.90427,8.399 1294.00475,11.075 1294.16952,13.999 Z M1290.11114,5.189 C1289.32723,5.779 1288.38054,6.282 1287.31202,6.686 C1286.57903,4.764 1285.58741,3.146 1284.40604,1.968 C1286.57903,2.553 1288.53133,3.674 1290.11114,5.189 Z M1281.72476,1.835 C1283.44338,2.682 1284.90236,4.601 1285.884,7.147 C1284.5858,7.501 1283.17874,7.716 1281.72476,7.772 L1281.72476,1.835 Z M1281.72476,9.272 C1283.3555,9.215 1284.92133,8.977 1286.36433,8.577 C1286.84367,10.225 1287.13526,12.064 1287.19718,14 L1281.72476,14 L1281.72476,9.272 Z M1281.72476,15.5 L1287.19718,15.5 C1287.13526,17.436 1286.84367,19.273 1286.36433,20.923 C1284.92133,20.522 1283.3545,20.285 1281.72476,20.229 L1281.72476,15.5 Z M1281.72476,27.666 L1281.72476,21.728 C1283.17874,21.785 1284.5858,21.999 1285.884,22.353 C1284.90236,24.898 1283.44338,26.818 1281.72476,27.666 Z M1284.40704,27.532 C1285.58941,26.353 1286.58003,24.736 1287.31302,22.814 C1288.37954,23.217 1289.32823,23.72 1290.11214,24.31 C1288.52933,25.826 1286.57903,26.945 1284.40704,27.532 Z M1291.14371,23.217 C1290.20501,22.483 1289.07258,21.869 1287.79735,21.389 C1288.32262,19.6 1288.63319,17.606 1288.6951,15.5 L1294.16852,15.5 C1294.00475,18.424 1292.90228,21.1 1291.14371,23.217 Z" transform="translate(-1266.083)"/></svg>