<svg xmlns="http://www.w3.org/2000/svg" width="42" height="66" viewBox="0 0 42 66"><g fill="#F6F0E1"><path d="M21,0 C9.4,0 0,9.4 0,21 L0,45 C0,56.6 9.4,66 21,66 C32.6,66 42,56.6 42,45 L42,21 C42,9.4 32.6,0 21,0 Z M39,45.8571429 C39,55.2857143 30.9,63 21,63 C11.1,63 3,55.2857143 3,45.8571429 L3,20.1428571 C3,10.7142857 11.1,3 21,3 C30.9,3 39,10.7142857 39,20.1428571 L39,45.8571429 Z"/><path d="M21.5,13 C20.66,13 20,14.1 20,15.5 L20,22.8 C20,24.2 20.66,25.3 21.5,25.3 C22.34,25.3 23,24.2 23,22.8 L23,15.5 C23,14.2 22.34,13 21.5,13 Z"/></g></svg>