<svg width="23" height="37" viewBox="0 0 23 37" fill="none" xmlns="http://www.w3.org/2000/svg">
<mask id="mask0_0_1" style="mask-type:luminance" maskUnits="userSpaceOnUse" x="0" y="0" width="23" height="37">
<path d="M11.9 2.68946C16.8596 2.68946 21.1106 6.70434 21.1106 11.9001C21.1106 16.6235 13.0808 33.3916 11.9 34.5725C10.7191 33.3916 2.68934 16.6235 2.68934 11.9001C2.92551 6.70434 6.94041 2.68946 11.9 2.68946ZM14.4979 34.1001C17.3319 29.1405 23 16.3873 23 11.9001C23 5.75966 18.0404 0.800049 11.9 0.800049C5.75956 0.800049 0.799988 5.75966 0.799988 11.9001C0.799988 16.3873 6.46808 29.1405 9.30212 34.1001C5.99574 34.3363 3.63403 34.8086 3.63403 35.5171C3.63403 36.4618 7.17659 36.9342 11.6638 36.9342C16.1511 36.9342 19.6936 36.2257 19.6936 35.5171C20.166 34.8086 17.8043 34.3363 14.4979 34.1001Z" fill="white"/>
</mask>
<g mask="url(#mask0_0_1)">
<mask id="mask1_0_1" style="mask-type:luminance" maskUnits="userSpaceOnUse" x="-266" y="-611" width="580" height="1948">
<path d="M313.254 -610.409H-265.6V1336.58H313.254V-610.409Z" fill="white"/>
</mask>
<g mask="url(#mask1_0_1)">
<path d="M25.1256 -1.32556H-1.08936V39.0596H25.1256V-1.32556Z" fill="#FC5226"/>
</g>
</g>
<mask id="mask2_0_1" style="mask-type:luminance" maskUnits="userSpaceOnUse" x="7" y="7" width="10" height="10">
<path d="M12.1361 16.6233C14.734 16.6233 16.8595 14.4978 16.8595 11.8999C16.8595 9.30205 14.734 7.17651 12.1361 7.17651C9.53825 7.17651 7.41272 9.30205 7.41272 11.8999C7.41272 14.4978 9.53825 16.6233 12.1361 16.6233Z" fill="white"/>
</mask>
<g mask="url(#mask2_0_1)">
<mask id="mask3_0_1" style="mask-type:luminance" maskUnits="userSpaceOnUse" x="-266" y="-611" width="580" height="1948">
<path d="M313.254 -610.409H-265.6V1336.58H313.254V-610.409Z" fill="white"/>
</mask>
<g mask="url(#mask3_0_1)">
<path d="M18.9851 5.28711H5.52344V18.7488H18.9851V5.28711Z" fill="#FC5226"/>
</g>
</g>
</svg>
