<svg xmlns="http://www.w3.org/2000/svg" width="17" height="16" viewBox="0 0 17 16"><path fill="#FFF" d="M7.98894538,0 C3.60405761,0 0.0357886212,3.57333333 0.000283457105,7.94666667 C-0.017469125,10.08 0.79914965,12.1066667 2.30811912,13.6177778 C3.79933602,15.1466667 5.80537779,15.9822222 7.93568764,16 C7.93568764,16 7.98894538,16 7.98894538,16 C12.3738331,16 15.9421021,12.4266667 15.9776073,8.05333333 C16.0131125,3.64444444 12.4448435,0.0355555556 7.98894538,0 Z M11.8590083,10.6666667 L11.5217092,11.0044444 L11.5039566,11.0222222 C10.9181214,11.6088889 10.4210491,11.7511111 9.63993551,11.52 C8.82331674,11.2711111 8.09546087,10.8266667 7.43861534,10.2933333 C6.49772849,9.52888889 5.48583131,8.53333333 4.82898578,7.50222222 C4.17214024,6.43555556 3.95910926,5.31555556 4.88224352,4.39111111 C4.88224352,4.39111111 4.8999961,4.37333333 4.8999961,4.37333333 L5.23729516,4.03555556 C5.48583131,3.78666667 5.8941407,3.78666667 6.16042943,4.03555556 L7.20783177,5.08444444 C7.45636792,5.33333333 7.45636792,5.74222222 7.20783177,6.00888889 L6.5864914,6.63111111 L6.60424398,6.64888889 C7.29659468,7.69777778 8.20197637,8.60444444 9.24937871,9.29777778 L9.26713129,9.31555556 L9.88847166,8.69333333 C10.1370078,8.44444444 10.5453172,8.44444444 10.8116059,8.69333333 L11.8590083,9.74222222 C12.125297,10.0088889 12.125297,10.4177778 11.8590083,10.6666667 Z" transform="translate(.59)"/></svg>