<svg xmlns="http://www.w3.org/2000/svg" width="17" height="16" viewBox="0 0 17 16"><path fill="#FFF" d="M7.98893499,0 C3.57676803,0 0,3.581722 0,8 C0,12.418278 3.57676803,16 7.98893499,16 C12.401102,16 15.97787,12.418278 15.97787,8 C15.97787,5.87826808 15.136181,3.84343678 13.6379651,2.34314575 C12.1397492,0.842854723 10.1077323,0 7.98893499,0 Z M11.5040664,5.28 L7.98893499,7.9136 L4.4738036,5.28 L11.5040664,5.28 Z M11.9834025,10.432 C11.9832757,10.5161313 11.9468188,10.5960963 11.8834205,10.6513015 C11.8200223,10.7065067 11.7358792,10.7315566 11.6526606,10.72 L4.3140249,10.72 C4.22905997,10.7291727 4.14439407,10.7002461 4.08274629,10.6409822 C4.0210985,10.5817184 3.98878162,10.498186 3.9944675,10.4128 C3.9944675,8.95253333 3.9944675,7.49226667 3.9944675,6.032 L3.9944675,5.6272 L5.29506611,6.6048 L7.74926694,8.448 C7.88230051,8.57892209 8.09556948,8.57892209 8.22860304,8.448 L11.9130999,5.6784 L11.9738158,5.6336 C11.9778254,5.65689374 11.9804928,5.68039928 11.9818047,5.704 L11.9818047,10.4256 L11.9834025,10.432 Z" transform="translate(.917)"/></svg>