<svg xmlns="http://www.w3.org/2000/svg" width="80" height="111" viewBox="0 0 80 111"><path fill="#1DBAB4" d="M79.986318,2.72060749 C79.9802372,2.63355588 79.9756765,2.54966978 79.9604743,2.46420092 C79.9483126,2.38981136 79.9285497,2.31858732 79.9103071,2.24736327 C79.889024,2.17139096 79.8707814,2.09541864 79.8434175,2.02102908 C79.8160535,1.95138779 79.7856491,1.88649477 79.7522043,1.81843624 C79.7187595,1.74721219 79.6837945,1.6775709 79.6442688,1.60951237 C79.6062633,1.5462021 79.562177,1.48922287 79.5180906,1.42907812 C79.472484,1.36735061 79.4253573,1.3056231 79.3736698,1.24706111 C79.3189419,1.18691636 79.2596534,1.13468539 79.1988446,1.08087167 C79.1593189,1.04605102 79.1273943,1.00489935 79.0848282,0.971661463 C79.069626,0.960582167 79.0529036,0.95425114 79.0392216,0.941589088 C78.972332,0.892523633 78.9008817,0.852954719 78.8294314,0.810220291 C78.7686227,0.775399646 78.7078139,0.735830731 78.6454849,0.707341113 C78.5816358,0.677268738 78.5147461,0.658275659 78.4478565,0.63453431 C78.3703253,0.607627448 78.2958346,0.579137829 78.2183034,0.56014475 C78.1605351,0.547482698 78.0997264,0.542734428 78.0389176,0.533237888 C77.9477045,0.520575836 77.8595318,0.506331026 77.7683186,0.50474827 C77.7515962,0.50474827 77.736394,0.5 77.7211919,0.5 L2.28032837,0.5 C1.02006689,0.5 0,1.56202967 0,2.87413488 L0,108.127448 C0,108.179679 0.0121617513,108.228744 0.0152021891,108.280975 C0.0197628458,108.368027 0.0258437215,108.451913 0.0395256917,108.537382 C0.051687443,108.613354 0.0714502888,108.684578 0.0912131347,108.757385 C0.110975981,108.833357 0.130738826,108.907747 0.156582548,108.980554 C0.183946488,109.051778 0.215871085,109.119836 0.249315901,109.187895 C0.282760718,109.257536 0.316205534,109.325595 0.355731225,109.39207 C0.395256917,109.456963 0.440863484,109.517108 0.486470052,109.578836 C0.5305564,109.637398 0.574642749,109.697542 0.624809973,109.752939 C0.682578291,109.816249 0.744907267,109.871646 0.807236242,109.927042 C0.845241715,109.96028 0.875646093,109.999849 0.916692004,110.029921 C0.925813317,110.037835 0.939495287,110.039418 0.948616601,110.047332 C1.12192156,110.1787 1.31346914,110.278414 1.51869869,110.355969 C1.56126482,110.371797 1.60535117,110.384459 1.6479173,110.397121 C1.8485862,110.457266 2.05685619,110.5 2.27576771,110.5 C2.27728793,110.5 2.27728793,110.5 2.27880815,110.5 L2.27880815,110.5 L2.27880815,110.5 L77.7196716,110.5 C78.9784129,110.5 80,109.436388 80,108.125865 L80,2.87255212 C80,2.82190391 79.9893585,2.77283846 79.986318,2.72060749 Z M73.1726969,5.24826976 L62.1009425,20.695974 C61.7117665,20.5297846 61.3013074,20.4142434 60.868045,20.4142434 C59.7065978,20.4142434 58.6196412,21.0663391 58.0237154,22.120455 C57.896017,22.3515374 57.6695044,22.4876545 57.4171481,22.4876545 C57.1207054,22.4876545 56.909395,22.2977237 56.8105807,22.120455 C56.2237762,21.0679218 55.1337793,20.4142434 53.9677714,20.4142434 C52.8032837,20.4142434 51.7148069,21.0663391 51.1219216,22.1188722 C50.9927029,22.3499547 50.7646701,22.4892373 50.5123138,22.4892373 C50.2173913,22.4892373 50.0045607,22.296141 49.9057464,22.1220377 C49.3189419,21.0695046 48.228945,20.4158261 47.0629371,20.4158261 C45.8923685,20.4158261 44.8038918,21.0710874 44.2216479,22.120455 C44.1213135,22.2993065 43.9069626,22.49082 43.6089997,22.49082 C43.3140772,22.49082 43.1027668,22.3008892 43.0024324,22.1188722 C42.4110672,21.0695046 41.3225905,20.4174089 40.1581028,20.4174089 C38.9966555,20.4174089 37.9081788,21.0695046 37.3152934,22.1236205 C37.2164792,22.3008892 37.0036485,22.49082 36.7056856,22.49082 C36.4092429,22.49082 36.1979325,22.3008892 36.0960778,22.1188722 C35.5062329,21.0695046 34.4177562,20.4174089 33.2532685,20.4174089 C32.0933414,20.4174089 31.0048647,21.0695046 30.4119793,22.1172895 C30.3116449,22.296141 30.0957738,22.4892373 29.7993311,22.4892373 C29.5454545,22.4892373 29.3189419,22.3531202 29.1897233,22.1220377 C28.6013986,21.0710874 27.5129219,20.4189916 26.3484342,20.4189916 C25.1824263,20.4189916 24.0924293,21.0726701 23.5056248,22.120455 C23.3186379,22.4544166 22.5630891,22.6221888 22.2833688,22.1220377 C21.6950441,21.0710874 20.6065673,20.4189916 19.4435999,20.4189916 C18.2791122,20.4189916 17.1891152,21.0710874 16.5947096,22.126786 C16.4974156,22.302472 16.2861052,22.4892373 15.9881423,22.4892373 C15.2751596,22.4892373 14.6959562,23.0922675 14.6959562,23.8345804 C14.6959562,24.5768932 15.2751596,25.1799235 15.9881423,25.1799235 C17.1571906,25.1799235 18.2471876,24.5246622 18.8279112,23.4784601 C18.9282457,23.2996086 19.1425965,23.1096778 19.4420797,23.1096778 C19.7385223,23.1096778 19.9498328,23.2996086 20.048647,23.4768774 C20.6354515,24.5278277 21.7269687,25.1815062 22.8929766,25.1815062 C24.0544238,25.1815062 25.1429006,24.5294105 25.7342657,23.4784601 C25.83308,23.3011914 26.0474308,23.1112606 26.3453937,23.1112606 C26.6418364,23.1112606 26.8546671,23.3011914 26.9534813,23.4784601 C27.5402858,24.5294105 28.6302828,25.183089 29.7962907,25.183089 C30.9562177,25.183089 32.0446944,24.5309933 32.6375798,23.4832084 C32.7394345,23.3043569 32.9537853,23.1112606 33.250228,23.1112606 C33.5025844,23.1112606 33.7306172,23.2489604 33.8583156,23.4752946 C34.4451201,24.5294105 35.5351171,25.1846717 36.701125,25.1846717 C37.8701733,25.1846717 38.9601703,24.5294105 39.5439343,23.4800429 C39.6442688,23.3011914 39.8586196,23.1112606 40.1535421,23.1112606 C40.4043782,23.1112606 40.6384919,23.2521259 40.7631499,23.4752946 C41.3499544,24.5294105 42.4399514,25.1846717 43.604439,25.1846717 C44.7689267,25.1846717 45.8619641,24.5309933 46.4533293,23.4737119 C46.5506233,23.2980259 46.7604135,23.1112606 47.0583764,23.1112606 C47.3076923,23.1112606 47.5387656,23.2505432 47.666464,23.4800429 C48.2578291,24.532576 49.3463059,25.1846717 50.5077531,25.1846717 C51.6722408,25.1846717 52.7607175,24.5309933 53.3490423,23.4800429 C53.4493767,23.3011914 53.6637276,23.1112606 53.9632107,23.1112606 C54.2125266,23.1112606 54.4435999,23.2505432 54.569778,23.4752946 C55.1565825,24.5294105 56.2465795,25.1846717 57.4125874,25.1846717 C58.1574947,25.1846717 58.8552752,24.8934445 59.4253573,24.4281141 L53.1392521,33.1965856 C52.3016114,33.4245025 51.5658255,33.9879639 51.1173609,34.7856732 C50.9866221,35.0167556 50.7585892,35.1560382 50.5062329,35.1560382 C50.2113104,35.1560382 49.9969596,34.9629419 49.9011858,34.7904214 C49.3143813,33.7378883 48.2259045,33.0826271 47.0568562,33.0826271 C45.8878078,33.0826271 44.7978109,33.7378883 44.215567,34.7856732 C44.1167528,34.9645247 43.9008817,35.1560382 43.6029188,35.1560382 C43.3079964,35.1560382 43.0966859,34.9661074 42.9963515,34.7872559 C42.4065065,33.7363056 41.3180298,33.0842098 40.1520219,33.0842098 C38.9905746,33.0842098 37.9020979,33.7363056 37.3092125,34.7888387 C37.2103983,34.9661074 36.9975676,35.1560382 36.6980845,35.1560382 C36.4016418,35.1560382 36.1903314,34.9661074 36.089997,34.7872559 C35.500152,33.7363056 34.4116753,33.0842098 33.2471876,33.0842098 C32.0872606,33.0842098 30.9987838,33.7363056 30.4058984,34.7840904 C30.3040438,34.9629419 30.0896929,35.1560382 29.7932502,35.1560382 C29.5393737,35.1560382 29.3128611,35.0183384 29.1836424,34.7904214 C28.5953177,33.7378883 27.506841,33.0842098 26.3408331,33.0842098 C25.173305,33.0842098 24.083308,33.7378883 23.4980237,34.7872559 C23.3976893,34.9661074 23.1833384,35.1560382 22.8884159,35.1560382 C22.6345394,35.1560382 22.4065065,35.0183384 22.2772879,34.7904214 C21.6889632,33.7378883 20.6004865,33.0842098 19.4359988,33.0842098 C18.2699909,33.0842098 17.1799939,33.7378883 16.5871085,34.793587 C16.4898145,34.9692729 16.2785041,35.1560382 15.9805412,35.1560382 C15.2675585,35.1560382 14.6883551,35.7590685 14.6883551,36.5013813 C14.6883551,37.2436942 15.2675585,37.8467244 15.9805412,37.8467244 C17.1511098,37.8467244 18.2395865,37.1914632 18.8218303,36.1436783 C18.9221648,35.9648268 19.1365157,35.7733133 19.4359988,35.7733133 C19.7309213,35.7733133 19.9422317,35.9632441 20.0425661,36.1420956 C20.6324111,37.1930459 21.7208878,37.8451417 22.8868957,37.8451417 C24.048343,37.8451417 25.1368197,37.1930459 25.7297051,36.1405128 C25.8285193,35.9632441 26.04135,35.7733133 26.3408331,35.7733133 C26.6372758,35.7733133 26.8485862,35.9632441 26.9489206,36.1420956 C27.5387656,37.1930459 28.6272423,37.8451417 29.79173,37.8451417 C30.951657,37.8451417 32.0401338,37.1930459 32.6330192,36.1452611 C32.7348738,35.9664096 32.9492247,35.7733133 33.2456674,35.7733133 C33.4995439,35.7733133 33.7260566,35.9110131 33.8552752,36.1389301 C34.4435999,37.1914632 35.5320766,37.8451417 36.6980845,37.8451417 C37.8656126,37.8451417 38.9556096,37.1914632 39.5408939,36.1420956 C39.6412283,35.9632441 39.8555792,35.7733133 40.1505017,35.7733133 C40.4043782,35.7733133 40.6324111,35.9110131 40.7616297,36.1389301 C41.3499544,37.1914632 42.4369109,37.8451417 43.6029188,37.8451417 C44.7689267,37.8451417 45.8574035,37.1914632 46.4518091,36.1357645 C46.5491031,35.9600786 46.7588933,35.7733133 47.0568562,35.7733133 C47.3061721,35.7733133 47.5372454,35.9125959 47.666464,36.1436783 C48.1468531,36.9967841 48.9632107,37.5665765 49.8707814,37.75809 L42.958346,47.4002432 C42.3624202,46.3809479 41.2952265,45.7446798 40.1489815,45.7446798 C38.9875342,45.7446798 37.8990575,46.3967755 37.3061721,47.4493086 C37.2073579,47.6265774 36.9945272,47.8165082 36.6950441,47.8165082 C36.3986014,47.8165082 36.187291,47.6265774 36.0869565,47.4477259 C35.4971116,46.3967755 34.4086348,45.7446798 33.2441472,45.7446798 C32.0842201,45.7446798 30.9957434,46.3967755 30.402858,47.4445604 C30.3025236,47.6234118 30.0866525,47.8165082 29.7902098,47.8165082 C29.5363332,47.8165082 29.3098206,47.6788083 29.180602,47.4508914 C28.5922773,46.3983582 27.5038005,45.7446798 26.3377926,45.7446798 C25.1702645,45.7446798 24.0802676,46.3983582 23.4949833,47.4477259 C23.3946488,47.6265774 23.180298,47.8165082 22.8853755,47.8165082 C22.6314989,47.8165082 22.4034661,47.6788083 22.2742475,47.4508914 C21.6859228,46.3983582 20.597446,45.7446798 19.4329583,45.7446798 C18.2669504,45.7446798 17.1769535,46.3983582 16.5840681,47.4540569 C16.4867741,47.6297429 16.2754637,47.8165082 15.9775008,47.8165082 C15.2645181,47.8165082 14.6853147,48.4195384 14.6853147,49.1618512 C14.6853147,49.9041641 15.2645181,50.5071943 15.9775008,50.5071943 C17.1465491,50.5071943 18.2365461,49.8519331 18.8187899,48.8041483 C18.9191244,48.6252968 19.1334752,48.4337832 19.4329583,48.4337832 C19.7278808,48.4337832 19.9391912,48.623714 20.0395257,48.8025655 C20.6293706,49.8535159 21.7178474,50.5056116 22.8838553,50.5056116 C24.0453025,50.5056116 25.1337793,49.8535159 25.7266646,48.8009827 C25.8254789,48.623714 26.0383095,48.4337832 26.3377926,48.4337832 C26.6342353,48.4337832 26.8455458,48.623714 26.9458802,48.8025655 C27.5357251,49.8535159 28.6242019,50.5056116 29.7886896,50.5056116 C30.9486166,50.5056116 32.0370933,49.8535159 32.6299787,48.805731 C32.7303132,48.6268795 32.9461843,48.4337832 33.2426269,48.4337832 C33.4965035,48.4337832 33.7230161,48.571483 33.8522347,48.7994 C34.4405594,49.8519331 35.5290362,50.5056116 36.6950441,50.5056116 C37.8625722,50.5056116 38.9525692,49.8519331 39.5378535,48.8025655 C39.6381879,48.623714 39.8525388,48.4337832 40.1474612,48.4337832 C40.4013378,48.4337832 40.6293706,48.571483 40.7585892,48.7994 C40.9273335,49.1017065 41.1447248,49.3596958 41.3864396,49.5907783 L34.7734874,58.8166664 C34.3067802,58.5586771 33.7853451,58.403567 33.2426269,58.403567 C32.0826999,58.403567 30.9942232,59.0556627 30.4013378,60.1034475 C30.2994831,60.282299 30.0851323,60.4738126 29.7886896,60.4738126 C29.534813,60.4738126 29.3083004,60.3376955 29.1790818,60.1097786 C28.5907571,59.0556627 27.5022803,58.403567 26.3362724,58.403567 C25.1687443,58.403567 24.0787473,59.0556627 23.4934631,60.106613 C23.3931286,60.2838818 23.1787777,60.4738126 22.8838553,60.4738126 C22.6299787,60.4738126 22.4019459,60.3376955 22.2727273,60.1097786 C21.6844026,59.0556627 20.5959258,58.403567 19.4314381,58.403567 C18.2654302,58.403567 17.1754333,59.0556627 16.5825479,60.1129441 C16.4852539,60.2870473 16.2739434,60.4753953 15.9759805,60.4753953 C15.2629979,60.4753953 14.6837945,61.0784256 14.6837945,61.8223212 C14.6837945,62.5662168 15.2629979,63.1676643 15.9759805,63.1676643 C17.1450289,63.1676643 18.2350258,62.5139858 18.8172697,61.466201 C18.9176041,61.2873495 19.131955,61.0958359 19.4314381,61.0958359 C19.7263606,61.0958359 19.937671,61.2873495 20.0380055,61.466201 C20.6278504,62.5155686 21.7163272,63.1676643 22.8823351,63.1676643 C24.0437823,63.1676643 25.132259,62.5171513 25.7251444,61.4630354 C25.8239587,61.2873495 26.0367893,61.0958359 26.3362724,61.0958359 C26.6327151,61.0958359 26.8440255,61.2873495 26.94436,61.466201 C27.5342049,62.5155686 28.6226817,63.1676643 29.7871694,63.1676643 C30.9470964,63.1676643 32.0355731,62.5171513 32.6284585,61.4693665 C32.7120705,61.3205873 32.8884159,61.1876358 33.1088477,61.1385703 L25.9531773,71.1210161 C24.937671,71.2476367 24.0133779,71.8395876 23.4919428,72.7702485 C23.3916084,72.9491 23.1772575,73.1406135 22.8823351,73.1406135 C22.6284585,73.1406135 22.4004257,73.0029137 22.2712071,72.773414 C21.6828823,71.7224636 20.5944056,71.0687852 19.4299179,71.0687852 C18.26391,71.0687852 17.173913,71.7208809 16.5810277,72.7765795 C16.4837337,72.9522655 16.2724232,73.1406135 15.9744603,73.1406135 C15.2614777,73.1406135 14.6822742,73.742061 14.6822742,74.4859566 C14.6822742,75.2298522 15.2614777,75.8312997 15.9744603,75.8312997 C17.1435087,75.8312997 18.2335056,75.1776213 18.8157495,74.1298364 C18.9160839,73.9509849 19.1304348,73.7594714 19.4299179,73.7594714 C19.7248404,73.7594714 19.9361508,73.9494021 20.0364853,74.1298364 C20.5776832,75.0937352 21.5475829,75.6967654 22.604135,75.7933136 L4.56065673,100.974971 L4.56065673,5.24826976 L73.1726969,5.24826976 Z M6.82730313,105.753313 L19.2079659,88.4806904 L66.9838857,88.4806904 C68.2426269,88.4806904 69.264214,87.4170779 69.264214,86.1065555 C69.264214,84.796033 68.2426269,83.7324206 66.9838857,83.7324206 L22.6102159,83.7324206 L28.2821526,75.8186377 L66.9838857,75.8186377 C68.2426269,75.8186377 69.264214,74.7550253 69.264214,73.4445028 C69.264214,72.1339803 68.2426269,71.0703679 66.9838857,71.0703679 L31.6859228,71.0703679 L37.3578595,63.156585 L66.9838857,63.156585 C68.2426269,63.156585 69.264214,62.0929726 69.264214,60.7824501 C69.264214,59.4703449 68.2426269,58.4083152 66.9838857,58.4083152 L40.7616297,58.4083152 L46.4335664,50.4945323 L66.9838857,50.4945323 C68.2426269,50.4945323 69.264214,49.4325026 69.264214,48.1203974 C69.264214,46.8082922 68.2426269,45.7462625 66.9838857,45.7462625 L49.8373366,45.7462625 L55.5092733,37.8324796 L66.9838857,37.8324796 C68.2426269,37.8324796 69.264214,36.7704499 69.264214,35.4583447 C69.264214,34.1462395 68.2426269,33.0842098 66.9838857,33.0842098 L58.9115233,33.0842098 L64.58346,25.1704269 L66.9823655,25.1704269 C68.2411067,25.1704269 69.2626938,24.1083972 69.2626938,22.796292 C69.2626938,21.8070692 68.68045,20.9618771 67.8564913,20.6041742 L75.437823,10.0250291 L75.437823,105.753313 L6.82730313,105.753313 Z"/></svg>